<svg width="32" height="32" viewBox="0 0 32 32" xmlns="http://www.w3.org/2000/svg"><title>phone_outline</title><g stroke="#28c8f2" stroke-width="2" fill="none" fill-rule="evenodd" stroke-linecap="round"><path d="M25.2 24.167c.55.4 1.45.9 1.3 2.1-.15 1.2-1.95 4.25-5.75 4.25s-8.5-3-12.6-7.1S1 14.617 1 10.767c0-3.85 3.4-5.6 4.25-5.75.85-.15 1.7.75 2.1 1.3l2.9 4.4a2.05 2.05 0 0 1-.55 2.8c-1.25 1-3.3 2.25 1.4 6.9 4.7 4.65 5.9 2.65 6.9 1.4a2.05 2.05 0 0 1 2.8-.55l4.4 2.9zM15 1c8.837 0 16 7.163 16 16M15 6c6.075 0 11 4.925 11 11m-11-5.5a5.5 5.5 0 0 1 5.5 5.5"/></g></svg>