<svg width="34" height="33" viewBox="0 0 34 33" xmlns="http://www.w3.org/2000/svg"><title>money</title><g transform="translate(1 1)" stroke-width="2" stroke="#51D85F" fill="none" fill-rule="evenodd" stroke-linecap="round"><ellipse cx="21.333" cy="16.034" rx="6.4" ry="2.138"/><path d="M27.733 20.31c0 1.176-2.88 2.138-6.4 2.138-3.52 0-6.4-.962-6.4-2.138m12.8 4.276c0 1.176-2.88 2.138-6.4 2.138-3.52 0-6.4-.962-6.4-2.138m0-5.345H0V0h32v19.241h-4.267"/><ellipse cx="16" cy="9.621" rx="4.267" ry="4.276"/><path d="M5.333 9.62h2.134m17.066 0h2.134M5.333 0a5.35 5.35 0 0 1-1.562 3.78A5.328 5.328 0 0 1 0 5.344m32 0A5.34 5.34 0 0 1 26.667 0M0 13.897c1.414 0 2.771.563 3.771 1.565a5.35 5.35 0 0 1 1.562 3.78m9.6-3.208v12.828c0 1.176 2.88 2.138 6.4 2.138 3.52 0 6.4-.962 6.4-2.138V16.034"/></g></svg>