<svg width="34" height="31" viewBox="0 0 34 31" xmlns="http://www.w3.org/2000/svg"><title>wallet</title><g transform="matrix(-1 0 0 1 33 1)" stroke="#51D85F" stroke-width="2" fill="none" fill-rule="evenodd" stroke-linecap="round"><path d="M9.548 21.75H1.574C.704 21.75 0 21.054 0 20.196V1.554C0 .696.705 0 1.574 0h28.328c.869 0 1.573.696 1.573 1.554M5.245 5.179H16.42M5.246 11.393h4.197"/><path d="M31.475 19.16a2.792 2.792 0 0 1-1.573 2.59L11.54 28.793c-1.574.673-2.098-.518-2.098-1.347V9.84a2.689 2.689 0 0 1 1.573-2.589L28.852.414c1.155-.414 2.623.26 2.623 1.14V19.16z"/><ellipse cx="15.738" cy="16.675" rx="2.098" ry="2.071"/></g></svg>