<svg width="24" height="25" viewBox="0 0 24 25" xmlns="http://www.w3.org/2000/svg"><title>map</title><g fill-rule="nonzero" fill="#FF4B3E"><path d="M9 0C4.03 0 0 3.731 0 8.333 0 15.833 9 25 9 25s9-9.167 9-16.667C18 3.731 13.97 0 9 0zm0 11.667c-1.988 0-3.6-1.493-3.6-3.334C5.4 6.493 7.012 5 9 5s3.6 1.492 3.6 3.333c0 1.841-1.612 3.334-3.6 3.334z"/><path d="M17.302 2h-.209a9.927 9.927 0 0 1 1.884 5.833c0 3.834-1.926 7.959-3.977 11.292A35.653 35.653 0 0 0 17.302 22S24 14.667 24 8.667C24 4.985 21.001 2 17.302 2z"/></g></svg>