<svg width="21" height="22" viewBox="0 0 21 22" xmlns="http://www.w3.org/2000/svg"><title>phone</title><g fill="#FFD800"><path d="M19.916 16.764l-3.62-2.392a1.685 1.685 0 0 0-2.305.454c-.823 1.03-1.852 2.721-5.679-1.155-3.827-3.875-2.18-4.865-1.152-5.69.724-.517.922-1.51.453-2.267L5.226 2.086c-.33-.454-.74-1.196-1.728-1.072C2.51 1.137 0 2.58 0 5.714c0 3.133 2.469 7.01 5.843 10.39C9.218 19.484 13.086 22 16.254 22c3.169 0 4.609-2.804 4.732-3.505.124-.7-.617-1.443-1.07-1.731zM10.846 0a.846.846 0 0 0 0 1.692 8.462 8.462 0 0 1 8.462 8.462.846.846 0 0 0 1.692 0C21 4.546 16.454 0 10.846 0z"/><path d="M15.133 10.067a.933.933 0 0 0 1.867 0A6.067 6.067 0 0 0 10.933 4a.933.933 0 0 0 0 1.867 4.2 4.2 0 0 1 4.2 4.2z"/></g></svg>