<svg xmlns="http://www.w3.org/2000/svg" xmlns:xlink="http://www.w3.org/1999/xlink" width="47" height="41" viewBox="0 0 47 41"><defs><path id="a" d="M736.85 374.4v.6a4.27 4.27 0 0 1-4.31 4.23H715.7c-.5 0-.96.2-1.3.53l-6.84 6.7c-.35.35-.88.45-1.34.26a1.2 1.2 0 0 1-.76-1.1v-4.58c0-1-.82-1.81-1.84-1.81h-2.28a4.27 4.27 0 0 1-4.31-4.22v-19.9a4.27 4.27 0 0 1 4.3-4.22h18.89a.6.6 0 0 1 .61.6.6.6 0 0 1-.61.6h-18.88a3.05 3.05 0 0 0-3.08 3.02v19.9a3.05 3.05 0 0 0 3.08 3.01h2.26c1.7 0 3.08 1.35 3.08 3.02v4.57l6.84-6.7a3.11 3.11 0 0 1 2.18-.88h16.83c1.7 0 3.07-1.35 3.07-3.02v-.6c0-.33.28-.6.62-.6a.6.6 0 0 1 .62.6zm7.04-16.01l-1.78 9.64a4.29 4.29 0 0 1-4.24 3.48h-12.11c-.82 0-1.6-.33-2.18-.9l-.16-.15v.16c0 1.02-.84 1.85-1.89 1.85h-2.98a1.87 1.87 0 0 1-1.89-1.85v-12.66c0-1.02.85-1.85 1.9-1.85h2.98c1.05 0 1.9.83 1.9 1.85v.18h.69c2.04 0 3.7-1.62 3.7-3.61v-7.15c0-.67.54-1.21 1.22-1.21h1.23c2.04 0 3.7 1.62 3.7 3.62v5.05h6.9c.9 0 1.76.4 2.34 1.09.58.68.83 1.58.67 2.46zm-21.7-.43c0-.35-.3-.64-.66-.64h-2.98a.65.65 0 0 0-.66.64v12.67c0 .35.3.64.66.64h3c.36 0 .65-.29.65-.64v-12.67zm20.08-1.27a1.86 1.86 0 0 0-1.41-.66h-6.89c-.68 0-1.23-.54-1.23-1.2v-5.04c0-1.33-1.1-2.41-2.46-2.41h-1.23v7.15c0 2.67-2.2 4.83-4.93 4.83h-.69v9.4l1.03 1c.34.34.81.53 1.3.53h12.13a3.06 3.06 0 0 0 3.02-2.48l1.78-9.65c.1-.52-.05-1.06-.4-1.47z"/></defs><use fill="#fd4a3e" xlink:href="#a" transform="translate(-697 -346)"/></svg>